<?xml version="1.0" standalone="no"?>
<!DOCTYPE svg PUBLIC "-//W3C//DTD SVG 20010904//EN"
 "http://www.w3.org/TR/2001/REC-SVG-20010904/DTD/svg10.dtd">
<svg version="1.0" xmlns="http://www.w3.org/2000/svg"
 width="563.000000pt" height="375.000000pt" viewBox="0 0 563.000000 375.000000"
 preserveAspectRatio="xMidYMid meet">

<g transform="translate(0.000000,375.000000) scale(0.100000,-0.100000)"
fill="#000000" stroke="none">
<path d="M2373 2820 c-51 -31 -63 -65 -63 -178 0 -70 -4 -103 -13 -110 -9 -8
-138 -12 -391 -14 l-378 -3 -34 -37 -34 -38 0 -147 c0 -131 2 -152 20 -181 37
-60 50 -62 454 -62 323 0 365 -2 370 -16 3 -9 6 -56 6 -105 0 -53 6 -103 14
-122 22 -55 90 -86 143 -66 15 6 201 110 412 232 286 165 389 229 403 252 26
40 19 108 -13 141 -21 20 -607 365 -757 445 -64 34 -95 36 -139 9z m461 -288
c230 -133 378 -224 382 -236 4 -11 -1 -25 -12 -36 -32 -29 -753 -440 -773
-440 -32 0 -39 22 -43 136 -2 95 -6 115 -23 134 -42 48 -61 50 -443 50 -265 0
-361 3 -370 12 -8 8 -12 54 -12 140 0 116 2 128 19 138 13 6 151 10 381 10
303 0 366 2 390 15 47 25 60 61 60 174 0 106 13 138 50 126 10 -3 187 -103
394 -223z"/>
<path d="M2765 1799 c-209 -120 -392 -230 -407 -244 -52 -49 -45 -134 15 -179
18 -13 202 -121 410 -241 363 -209 380 -217 420 -212 31 4 50 15 74 41 33 36
33 36 33 144 0 71 4 112 12 120 9 9 108 12 383 12 480 0 454 -13 455 237 l0
153 -29 32 -29 33 -387 5 c-328 4 -387 7 -395 20 -5 8 -10 59 -10 113 0 111
-13 148 -60 172 -66 34 -80 29 -485 -206z m453 129 c8 -8 12 -48 12 -112 0
-84 4 -107 20 -134 37 -60 51 -62 448 -62 265 0 361 -3 370 -12 17 -17 17
-259 0 -276 -9 -9 -108 -12 -386 -12 l-374 0 -39 -39 -39 -39 0 -111 c0 -171
30 -177 -434 91 -374 216 -386 224 -384 251 3 27 33 46 383 248 208 120 386
219 395 219 9 0 21 -5 28 -12z"/>
</g>
</svg>
