<?xml version="1.0" standalone="no"?>
<!DOCTYPE svg PUBLIC "-//W3C//DTD SVG 20010904//EN"
 "http://www.w3.org/TR/2001/REC-SVG-20010904/DTD/svg10.dtd">
<svg version="1.0" xmlns="http://www.w3.org/2000/svg"
 width="563.000000pt" height="256.000000pt" viewBox="0 0 563.000000 256.000000"
 preserveAspectRatio="xMidYMid meet">

<g transform="translate(0.000000,256.000000) scale(0.100000,-0.100000)"
fill="#000000" stroke="none">
<path d="M3897 2125 c9 -142 -25 -265 -111 -393 -47 -70 -160 -188 -237 -246
l-45 -34 -23 44 c-32 60 -120 140 -188 171 -77 35 -197 43 -274 18 -64 -21
-121 -53 -114 -65 3 -5 0 -12 -6 -16 -8 -4 -9 -3 -5 4 11 18 -10 14 -25 -5
-12 -15 -12 -16 1 -8 8 5 -5 -11 -28 -35 -47 -47 -95 -133 -105 -188 -11 -54
11 -172 43 -238 33 -67 82 -123 144 -163 36 -23 58 -61 36 -61 -15 0 -30 -91
-30 -182 0 -93 16 -192 46 -280 16 -48 16 -48 61 -48 39 0 44 2 38 18 -12 28
-42 144 -49 189 l-6 42 82 4 83 3 -82 2 -83 2 0 63 c0 35 5 89 12 121 l11 57
36 -6 c121 -20 327 89 372 197 6 15 15 25 20 22 5 -3 12 2 15 10 6 16 44 23
44 8 0 -17 -102 -122 -112 -116 -6 4 -8 3 -5 -3 3 -5 -19 -24 -49 -42 -29 -19
-54 -35 -54 -37 0 -8 55 18 95 46 24 17 53 30 64 30 12 0 21 5 21 11 0 5 -4 7
-10 4 -19 -12 -10 7 24 49 35 41 67 106 80 159 l6 27 146 0 c80 0 144 -3 142
-7 -2 -5 -14 -29 -28 -56 l-24 -47 -130 -2 -131 -2 115 -3 c63 -2 120 -5 127
-8 11 -4 1 -47 -33 -129 -5 -13 -4 -17 3 -13 6 4 14 18 17 31 3 13 16 46 28
73 24 53 25 57 27 77 0 8 17 37 36 66 37 56 46 79 16 43 -10 -12 -21 -20 -24
-17 -3 3 -65 5 -137 5 -72 -1 -134 0 -138 3 -4 2 -5 29 -4 60 l4 55 46 4 47 3
-52 2 c-47 2 -53 5 -53 23 0 12 18 38 43 60 41 37 45 38 122 40 l80 3 -73 5
-72 6 45 55 45 55 70 -3 c46 -3 70 0 70 7 0 7 -25 11 -64 11 l-65 0 35 58 35
57 67 6 67 5 -64 2 c-56 2 -62 4 -56 20 4 9 14 36 22 60 15 43 16 43 59 41 24
-2 46 0 50 4 4 4 -14 7 -41 7 l-48 0 7 38 c3 20 6 45 6 55 0 13 8 17 35 17 44
0 46 18 3 22 -33 3 -33 4 -36 60 -3 52 -1 57 20 61 l23 4 -23 2 c-12 0 -25 8
-28 16 -4 8 -12 15 -19 15 -10 0 -12 -20 -8 -85z m-850 -461 c-3 -3 -12 -4
-19 -1 -8 3 -5 6 6 6 11 1 17 -2 13 -5z m383 -151 c0 -8 -9 0 -50 45 l-45 47
48 -45 c26 -24 47 -45 47 -47z m-390 -53 c5 0 11 10 13 23 4 19 4 18 6 -5 1
-22 -4 -28 -19 -28 -15 0 -20 6 -19 28 2 23 2 24 6 5 2 -13 8 -23 13 -23z m77
23 c2 -6 -5 -17 -16 -23 -19 -10 -21 -8 -21 15 0 19 5 26 17 23 9 -2 18 -8 20
-15z m63 2 c-6 -8 -9 -19 -5 -25 3 -5 2 -10 -3 -10 -5 0 -12 11 -14 25 -4 20
-1 25 15 25 16 0 17 -3 7 -15z m65 -10 c0 -23 -34 -33 -46 -14 -10 17 9 41 30
37 9 -2 16 -12 16 -23z m335 -60 c0 -8 -7 -15 -16 -15 -14 0 -14 3 -4 15 7 8
14 15 16 15 2 0 4 -7 4 -15z m-582 -37 c3 -15 -4 -18 -32 -18 -25 0 -36 -4
-36 -15 0 -9 9 -15 23 -15 34 0 61 -33 53 -64 -8 -34 -40 -49 -88 -43 -46 6
-50 9 -43 29 4 10 18 15 42 14 21 -1 38 4 40 12 3 8 -7 12 -31 12 -44 0 -50
10 -41 66 l6 45 52 -3 c40 -2 53 -7 55 -20z m147 -3 c19 -18 25 -35 25 -65 0
-102 -127 -124 -146 -25 -17 90 63 149 121 90z m113 13 c17 -17 15 -63 -3 -78
-12 -10 -21 -10 -40 -2 -42 19 -30 92 15 92 9 0 21 -5 28 -12z m98 -3 c-14
-37 -108 -165 -121 -165 -8 0 -15 2 -15 6 0 8 80 126 103 152 23 25 42 29 33
7z m225 -12 c3 -51 -4 -89 -19 -97 -15 -9 -15 -10 0 -15 15 -6 15 -10 0 -56
-13 -39 -22 -51 -41 -53 -20 -3 -23 -1 -17 15 16 39 28 130 23 176 -4 46 -4
47 24 47 21 0 29 -5 30 -17z m-84 -25 c-3 -8 -6 -5 -6 6 -1 11 2 17 5 13 3 -3
4 -12 1 -19z m-117 -48 c24 -24 24 -29 4 -58 -17 -24 -43 -29 -62 -10 -18 18
-15 65 6 77 24 15 29 14 52 -9z m-270 -150 c0 -10 -6 -20 -12 -23 -21 -7 -38
4 -38 23 0 10 6 20 13 23 20 7 37 -4 37 -23z m81 16 c-9 -11 -9 -15 1 -18 8
-3 6 -7 -5 -11 -12 -5 -17 -1 -17 12 0 16 10 26 29 30 2 1 -2 -5 -8 -13z m-46
-10 c12 -12 12 -15 -1 -20 -23 -9 -24 -8 -24 14 0 24 6 25 25 6z m-18 -252
c-3 -3 -12 -4 -19 -1 -8 3 -5 6 6 6 11 1 17 -2 13 -5z"/>
<path d="M3090 1480 c0 -5 5 -10 10 -10 6 0 10 5 10 10 0 6 -4 10 -10 10 -5 0
-10 -4 -10 -10z"/>
<path d="M3210 1475 c0 -9 5 -15 11 -13 6 2 11 8 11 13 0 5 -5 11 -11 13 -6 2
-11 -4 -11 -13z"/>
<path d="M3082 1348 c-26 -26 -8 -96 23 -85 12 5 15 17 13 49 -3 44 -16 56
-36 36z"/>
<path d="M3220 1350 c0 -13 5 -20 13 -17 6 2 12 10 12 17 0 7 -6 15 -12 18 -8
2 -13 -5 -13 -18z"/>
<path d="M3340 1271 c0 -11 4 -22 9 -25 11 -7 23 22 15 35 -9 16 -24 10 -24
-10z"/>
<path d="M3075 1160 c-4 -6 -3 -16 3 -22 6 -6 12 -6 17 2 4 6 3 16 -3 22 -6 6
-12 6 -17 -2z"/>
<path d="M2995 2180 c3 -5 8 -10 11 -10 2 0 4 5 4 10 0 6 -5 10 -11 10 -5 0
-7 -4 -4 -10z"/>
<path d="M4090 2170 c152 -10 828 -9 730 0 -41 4 -248 7 -460 7 -252 0 -345
-3 -270 -7z"/>
<path d="M4935 2170 l-30 -8 33 -1 c17 0 32 4 32 9 0 6 -1 9 -2 9 -2 -1 -16
-5 -33 -9z"/>
<path d="M5065 2172 c-3 -3 -5 -9 -5 -14 0 -11 47 -10 54 1 6 9 -40 22 -49 13z"/>
<path d="M4980 2166 c0 -8 51 -13 56 -5 3 5 -9 9 -25 9 -17 0 -31 -2 -31 -4z"/>
<path d="M5135 2160 c-8 -13 25 -13 45 0 12 8 9 10 -12 10 -15 0 -30 -4 -33
-10z"/>
<path d="M5210 2161 c0 -7 25 -11 60 -11 33 0 60 4 60 8 0 5 -27 10 -60 11
-37 1 -60 -2 -60 -8z"/>
<path d="M2900 2149 c0 -5 5 -7 10 -4 6 3 10 8 10 11 0 2 -4 4 -10 4 -5 0 -10
-5 -10 -11z"/>
<path d="M3025 2150 c3 -5 8 -10 11 -10 2 0 4 5 4 10 0 6 -5 10 -11 10 -5 0
-7 -4 -4 -10z"/>
<path d="M4435 2130 c-15 -16 -21 -18 -33 -7 -12 9 -16 9 -19 0 -3 -7 -11 -13
-18 -13 -7 0 -25 -13 -38 -30 l-26 -30 -146 0 c-95 0 -144 -4 -140 -10 4 -6
64 -10 146 -10 l140 0 -14 -27 c-8 -16 -17 -40 -21 -55 l-6 -28 -120 0 c-73 0
-120 -4 -120 -10 0 -6 45 -10 115 -10 128 0 125 2 109 -79 l-6 -31 -119 0
c-66 0 -119 -4 -119 -9 0 -4 15 -9 33 -9 17 0 71 0 120 -1 l87 -1 0 -29 c0
-16 -3 -43 -6 -61 l-7 -32 -143 7 c-100 4 -144 3 -144 -4 0 -7 49 -11 146 -11
129 0 145 -2 140 -16 -3 -9 -6 -33 -6 -55 l0 -39 -192 0 c-105 0 -189 -2 -186
-5 2 -3 87 -7 189 -10 146 -4 185 -7 187 -19 2 -7 -4 -20 -12 -28 -8 -8 -19
-32 -25 -52 -5 -21 -28 -62 -51 -92 -31 -41 -39 -58 -31 -68 6 -7 9 -15 7 -17
-2 -2 1 -29 8 -59 12 -52 13 -54 20 -24 7 31 57 94 75 94 14 0 34 -39 27 -55
-11 -28 23 -23 36 6 14 31 24 37 30 17 4 -10 8 -9 19 2 9 9 16 39 17 80 1 36
5 74 9 85 6 18 7 18 13 -5 6 -22 8 -20 16 20 9 40 13 45 38 45 26 -1 27 1 22
30 -3 17 -2 25 2 17 6 -9 12 -6 22 13 16 30 35 33 27 5 -3 -11 3 -30 15 -45
19 -25 19 -25 -1 -51 -33 -42 -24 -51 14 -14 36 35 50 24 18 -14 -18 -20 -18
-20 10 -3 15 10 27 14 26 10 -3 -20 2 -25 15 -14 24 20 28 -16 4 -39 -12 -11
-16 -20 -10 -20 10 0 10 -5 1 -21 -9 -17 -8 -23 2 -30 10 -6 19 1 29 22 l16
30 13 -24 c8 -14 13 -72 15 -150 1 -70 5 -129 8 -132 3 -4 31 40 61 96 l55
103 -22 19 c-11 10 -15 16 -8 12 22 -11 12 11 -18 40 -16 16 -30 37 -30 48 0
10 -5 28 -12 40 -10 20 -19 107 -10 107 2 0 12 -10 23 -22 17 -21 18 -21 12
-3 -10 33 11 7 24 -28 10 -29 11 -27 6 23 -3 30 -8 71 -12 90 -4 19 -6 55 -5
80 2 25 -4 83 -12 130 -9 47 -20 110 -25 140 -13 73 -19 75 -19 5 0 -80 -8
-66 -11 20 -1 39 -7 76 -12 83 -22 29 9 35 167 30 85 -3 161 -1 168 3 8 5 -14
9 -52 10 -36 0 -113 2 -172 5 -70 3 -108 1 -108 -6 0 -20 -18 -10 -24 14 -3
13 -24 35 -46 50 -50 33 -57 33 -31 0 23 -29 27 -44 11 -44 -5 0 -9 3 -7 8 1
4 -5 16 -13 25 -53 65 -74 72 -105 37z m76 -71 c9 -5 21 -26 26 -48 10 -39 10
-40 -18 -46 -42 -9 -46 -25 -4 -18 23 4 35 2 35 -6 0 -6 -11 -11 -24 -11 -13
0 -30 -8 -37 -17 -12 -15 -12 -16 4 -10 9 3 17 3 17 -2 0 -5 10 -11 21 -14 19
-5 21 -11 15 -39 -3 -18 -11 -34 -16 -36 -6 -2 -10 -10 -10 -18 0 -10 -13 -14
-47 -14 -60 0 -95 -9 -90 -23 6 -18 27 -20 27 -3 0 12 11 16 46 16 37 0 45 -3
40 -15 -3 -9 0 -15 9 -15 10 0 12 -9 8 -37 -7 -47 -11 -51 -50 -59 -27 -5 -37
-1 -62 24 -35 35 -49 77 -32 103 15 25 14 34 -3 20 -16 -14 -26 4 -26 50 0 24
6 31 36 44 41 17 37 39 -7 33 -21 -3 -29 0 -29 10 0 10 9 13 35 10 19 -2 35 0
35 4 0 4 -16 8 -35 8 -30 0 -35 3 -35 25 0 80 91 125 171 84z m79 -101 c0 -32
-4 -58 -10 -58 -6 0 -10 26 -10 59 0 33 -3 68 -6 78 -5 16 -4 16 10 -1 11 -13
16 -40 16 -78z m42 8 c2 -19 0 -32 -4 -30 -8 5 -12 64 -4 64 2 0 6 -15 8 -34z
m-55 -98 c-3 -8 -6 -5 -6 6 -1 11 2 17 5 13 3 -3 4 -12 1 -19z m100 -165 c-3
-10 -5 -2 -5 17 0 19 2 27 5 18 2 -10 2 -26 0 -35z m50 -497 c9 -20 10 -33 3
-40 -7 -7 -10 -4 -10 7 0 10 -6 30 -14 45 -7 15 -16 41 -19 57 -6 29 -6 29 10
-5 9 -19 23 -48 30 -64z"/>
<path d="M4450 1826 c0 -2 7 -6 15 -10 8 -3 15 -1 15 4 0 6 -7 10 -15 10 -8 0
-15 -2 -15 -4z"/>
<path d="M2870 2119 c0 -5 5 -7 10 -4 6 3 10 8 10 11 0 2 -4 4 -10 4 -5 0 -10
-5 -10 -11z"/>
<path d="M2930 2120 c0 -5 5 -10 10 -10 6 0 10 5 10 10 0 6 -4 10 -10 10 -5 0
-10 -4 -10 -10z"/>
<path d="M2990 2120 c0 -5 5 -10 10 -10 6 0 10 5 10 10 0 6 -4 10 -10 10 -5 0
-10 -4 -10 -10z"/>
<path d="M2900 2090 c0 -5 5 -10 10 -10 6 0 10 5 10 10 0 6 -4 10 -10 10 -5 0
-10 -4 -10 -10z"/>
<path d="M2960 2090 c0 -5 5 -10 10 -10 6 0 10 5 10 10 0 6 -4 10 -10 10 -5 0
-10 -4 -10 -10z"/>
<path d="M3020 2090 c0 -5 5 -10 10 -10 6 0 10 5 10 10 0 6 -4 10 -10 10 -5 0
-10 -4 -10 -10z"/>
<path d="M2930 2060 c0 -5 5 -10 10 -10 6 0 10 5 10 10 0 6 -4 10 -10 10 -5 0
-10 -4 -10 -10z"/>
<path d="M2990 2060 c0 -5 5 -10 10 -10 6 0 10 5 10 10 0 6 -4 10 -10 10 -5 0
-10 -4 -10 -10z"/>
<path d="M5005 2030 c-4 -6 6 -10 24 -10 16 0 33 5 36 10 4 6 -6 10 -24 10
-16 0 -33 -4 -36 -10z"/>
<path d="M5080 2031 c0 -5 57 -9 128 -8 115 1 120 1 52 8 -113 10 -180 10
-180 0z"/>
<path d="M4720 1906 c3 -3 140 -7 305 -9 165 -3 271 -2 235 2 -79 8 -547 14
-540 7z"/>
<path d="M4751 1776 c10 -9 279 -15 324 -7 38 7 6 9 -139 10 -104 0 -187 -1
-185 -3z"/>
<path d="M3037 1750 c-53 -17 -137 -63 -137 -76 0 -2 17 7 38 21 20 14 66 34
101 45 190 59 395 -23 495 -200 14 -25 26 -39 26 -32 0 16 -41 81 -80 125
-101 115 -292 166 -443 117z"/>
<path d="M5188 1763 c12 -2 32 -2 45 0 12 2 2 4 -23 4 -25 0 -35 -2 -22 -4z"/>
<path d="M5283 1763 c9 -2 25 -2 35 0 9 3 1 5 -18 5 -19 0 -27 -2 -17 -5z"/>
<path d="M860 1626 c0 -29 4 -36 19 -36 11 0 23 5 26 10 3 6 -1 10 -9 10 -9 0
-16 8 -16 19 0 11 -4 23 -10 26 -6 4 -10 -8 -10 -29z"/>
<path d="M950 1631 c0 -17 5 -33 10 -36 6 -4 10 8 10 29 0 20 -4 36 -10 36 -5
0 -10 -13 -10 -29z"/>
<path d="M1027 1654 c-10 -11 -9 -52 3 -59 6 -3 10 2 10 12 0 15 2 16 10 3 9
-13 11 -13 20 0 8 13 10 12 10 -3 0 -10 5 -15 10 -12 9 5 9 29 1 65 -1 3 -8
-4 -16 -14 -14 -19 -16 -19 -28 -2 -7 9 -16 14 -20 10z"/>
<path d="M1150 1625 c0 -22 4 -34 10 -30 6 3 10 17 10 30 0 13 -4 27 -10 30
-6 4 -10 -8 -10 -30z"/>
<path d="M1210 1650 c0 -5 5 -10 10 -10 6 0 10 -9 10 -20 0 -11 5 -20 10 -20
6 0 10 9 10 20 0 11 5 20 10 20 6 0 10 5 10 10 0 6 -13 10 -30 10 -16 0 -30
-4 -30 -10z"/>
<path d="M1317 1653 c-4 -3 -7 -17 -7 -30 0 -27 21 -39 48 -28 15 7 14 9 -8
15 -21 7 -22 8 -5 9 17 1 17 3 5 11 -10 6 -11 10 -2 10 6 0 12 5 12 10 0 11
-33 14 -43 3z"/>
<path d="M1420 1626 c0 -39 13 -46 46 -22 15 12 17 18 8 33 -6 10 -21 19 -33
21 -18 3 -21 -1 -21 -32z m40 5 c0 -6 -4 -13 -10 -16 -5 -3 -10 1 -10 9 0 9 5
16 10 16 6 0 10 -4 10 -9z"/>
<path d="M1590 1650 c0 -5 5 -10 10 -10 6 0 10 -12 10 -27 0 -32 15 -20 24 20
6 24 4 27 -19 27 -14 0 -25 -4 -25 -10z"/>
<path d="M1690 1631 c0 -17 5 -33 10 -36 6 -4 10 8 10 29 0 20 -4 36 -10 36
-5 0 -10 -13 -10 -29z"/>
<path d="M1767 1654 c-10 -11 -9 -52 3 -59 6 -3 10 2 10 12 0 15 2 16 10 3 9
-13 11 -13 20 0 8 13 10 12 11 -5 0 -20 0 -20 8 0 4 11 6 28 3 39 -5 18 -6 18
-19 1 -12 -18 -14 -18 -26 -1 -7 9 -16 14 -20 10z"/>
<path d="M1890 1630 c0 -33 24 -50 43 -31 8 8 6 11 -8 11 -15 0 -17 2 -6 9 11
7 11 9 0 14 -10 4 -8 6 4 6 24 1 11 21 -14 21 -15 0 -19 -7 -19 -30z"/>
<path d="M2062 1648 c-18 -18 -15 -36 9 -49 29 -15 59 12 43 39 -14 22 -36 26
-52 10z m38 -24 c0 -9 -5 -14 -12 -12 -18 6 -21 28 -4 28 9 0 16 -7 16 -16z"/>
<path d="M2170 1623 c1 -34 2 -36 14 -21 7 10 16 15 19 11 4 -3 7 -1 7 5 0 5
-6 13 -12 15 -8 3 -6 6 5 6 27 1 20 21 -8 21 -22 0 -25 -4 -25 -37z"/>
<path d="M2270 1623 c1 -34 2 -36 14 -21 7 10 16 15 19 11 4 -3 7 -1 7 5 0 5
-6 13 -12 15 -8 3 -5 6 5 6 24 1 11 21 -14 21 -15 0 -19 -7 -19 -37z"/>
<path d="M2364 1646 c-10 -26 1 -51 24 -54 26 -4 30 14 5 21 -15 4 -15 5 2 6
17 1 18 3 5 11 -10 6 -11 10 -2 10 6 0 12 5 12 10 0 16 -40 12 -46 -4z"/>
<path d="M2467 1653 c-10 -10 -8 -51 2 -57 5 -4 12 0 14 6 4 10 8 9 16 -2 6
-8 11 -13 12 -10 0 3 2 16 5 29 6 31 -29 55 -49 34z"/>
<path d="M4882 1643 c59 -2 158 -2 220 0 62 1 14 3 -107 3 -121 0 -172 -2
-113 -3z"/>
<path d="M2818 1593 c-22 -26 -60 -104 -54 -111 3 -3 6 -1 6 4 0 6 15 36 34
67 36 60 39 68 14 40z"/>
<path d="M4741 1564 c0 -11 3 -14 6 -6 3 7 2 16 -1 19 -3 4 -6 -2 -5 -13z"/>
<path d="M1010 1498 c-110 -57 -119 -163 -18 -214 26 -13 56 -24 67 -24 10 0
29 -9 42 -20 24 -20 24 -20 5 -35 -25 -19 -96 -19 -143 0 -49 21 -50 20 -73
-25 l-21 -41 38 -16 c41 -18 177 -24 225 -11 75 22 122 106 94 172 -13 32 -22
37 -92 59 -86 26 -111 49 -80 73 26 18 87 18 133 -1 20 -8 37 -14 37 -13 1 2
12 22 24 45 l23 42 -38 11 c-21 6 -69 14 -108 17 -60 4 -77 1 -115 -19z"/>
<path d="M1402 1405 c-37 -58 -95 -148 -129 -200 l-62 -95 64 0 64 0 22 40 23
40 82 0 82 0 9 -37 c9 -38 9 -38 66 -41 31 -2 57 1 57 5 0 4 -21 95 -46 201
l-46 192 -59 0 -60 0 -67 -105z m123 -92 l7 -43 -46 0 c-25 0 -46 2 -46 5 0 3
14 31 32 62 35 61 38 59 53 -24z"/>
<path d="M1756 1324 c-21 -102 -40 -192 -43 -200 -4 -12 22 -14 150 -14 86 0
158 3 161 8 2 4 7 24 11 45 l7 37 -96 0 c-53 0 -96 2 -96 3 0 2 14 71 30 152
17 81 30 150 30 152 0 1 -26 3 -59 3 l-58 0 -37 -186z"/>
<path d="M2111 1348 c-18 -90 -36 -180 -41 -200 l-7 -38 163 0 c89 0 165 3
167 8 2 4 7 24 11 45 l7 37 -107 0 c-105 0 -106 0 -100 23 3 12 6 28 6 35 0 9
25 12 89 12 50 0 92 3 94 8 2 4 7 24 11 45 l7 37 -91 0 -90 0 6 28 c4 15 9 30
11 34 2 4 48 7 103 5 l99 -2 5 29 c12 59 19 56 -152 56 l-158 0 -33 -162z"/>
<path d="M4720 1399 c5 -18 8 -35 6 -38 -3 -3 3 -15 11 -26 15 -20 15 -20 10
0 -3 11 -8 35 -12 52 -4 18 -10 35 -15 38 -5 3 -5 -9 0 -26z"/>
<path d="M3702 1394 c7 -6 349 -6 356 1 3 3 -77 5 -178 5 -101 0 -181 -2 -178
-6z"/>
<path d="M5238 1383 c12 -2 32 -2 45 0 12 2 2 4 -23 4 -25 0 -35 -2 -22 -4z"/>
<path d="M461 1245 c0 -5 10 -36 22 -67 l22 -57 105 62 c68 40 98 63 85 64
-79 8 -235 7 -234 -2z"/>
<path d="M3986 1226 c4 -16 2 -26 -5 -26 -6 0 -10 -6 -8 -12 1 -7 -5 -12 -14
-12 -12 1 -15 -4 -11 -19 5 -20 4 -20 -19 -4 -26 19 -49 22 -49 7 0 -11 60
-29 78 -22 6 2 12 10 12 18 0 8 6 13 13 12 21 -5 26 -47 11 -84 -12 -28 -18
-33 -37 -29 -18 5 -23 2 -25 -18 -1 -21 7 -28 61 -49 117 -48 126 -37 77 87
-20 50 -28 85 -24 103 4 19 3 23 -4 13 -8 -11 -13 -7 -26 17 -21 41 -39 51
-30 18z m66 -143 c21 -53 36 -98 34 -100 -8 -9 -46 52 -54 86 -5 20 -14 55
-19 79 -15 62 -4 45 39 -65z"/>
<path d="M3867 1086 c-4 -10 -7 -25 -6 -34 0 -11 4 -9 10 7 5 13 8 29 6 35 -2
5 -6 2 -10 -8z"/>
<path d="M1384 1000 c-31 -12 -54 -49 -54 -86 0 -24 8 -39 31 -58 l31 -26 255
0 255 0 29 29 c31 31 35 53 19 95 -19 51 -48 56 -307 55 -131 0 -248 -4 -259
-9z m181 -90 c-5 -8 -11 -8 -17 -2 -6 6 -7 16 -3 22 5 8 11 8 17 2 6 -6 7 -16
3 -22z m56 7 c-13 -13 -26 -3 -16 12 3 6 11 8 17 5 6 -4 6 -10 -1 -17z m154
-7 c-5 -8 -11 -8 -17 -2 -6 6 -7 16 -3 22 5 8 11 8 17 2 6 -6 7 -16 3 -22z
m-325 -1 c0 -5 -4 -9 -8 -9 -5 0 -9 7 -9 15 0 8 4 12 9 9 4 -3 8 -9 8 -15z
m37 -1 c-3 -8 -6 -5 -6 6 -1 11 2 17 5 13 3 -3 4 -12 1 -19z m233 6 c0 -8 -6
-11 -15 -8 -8 4 -15 9 -15 13 0 4 7 8 15 8 8 0 15 -6 15 -13z m132 -3 c-3 -9
-7 -11 -9 -4 -3 7 -11 9 -19 6 -8 -3 -14 -1 -14 4 0 5 11 9 24 9 17 0 22 -4
18 -15z"/>
<path d="M3250 900 c-10 -7 7 -10 54 -10 38 0 67 2 64 5 -10 10 -104 14 -118
5z"/>
<path d="M3403 893 c9 -2 25 -2 35 0 9 3 1 5 -18 5 -19 0 -27 -2 -17 -5z"/>
<path d="M5270 840 c0 -5 5 -10 11 -10 5 0 7 5 4 10 -3 6 -8 10 -11 10 -2 0
-4 -4 -4 -10z"/>
<path d="M4547 810 c3 -11 9 -17 14 -14 14 8 10 34 -5 34 -9 0 -12 -7 -9 -20z"/>
<path d="M5091 803 c0 -6 -4 -20 -7 -30 -5 -14 -4 -15 5 -7 7 7 11 20 8 30 -3
11 -5 14 -6 7z"/>
<path d="M3073 773 c26 -2 67 -2 90 0 23 2 2 3 -48 3 -49 0 -68 -1 -42 -3z"/>
<path d="M3273 773 c37 -2 96 -2 130 0 34 2 4 3 -68 3 -71 0 -99 -1 -62 -3z"/>
<path d="M4580 770 c0 -5 5 -10 11 -10 5 0 7 5 4 10 -3 6 -8 10 -11 10 -2 0
-4 -4 -4 -10z"/>
<path d="M4317 583 c-26 -93 -47 -171 -47 -175 0 -4 32 -6 71 -6 75 2 76 4 9
40 -17 10 -28 22 -25 28 8 13 42 13 50 0 3 -5 12 -10 19 -10 16 0 27 35 15 47
-4 4 3 9 18 10 38 2 51 20 27 38 -18 14 -18 15 14 27 44 17 41 30 -5 23 -36
-6 -37 -5 -19 9 14 11 15 16 6 16 -26 0 4 17 53 30 26 7 50 10 54 6 3 -3 1 -6
-5 -6 -7 0 -12 -4 -12 -8 0 -8 58 -8 66 1 6 5 -40 57 -50 57 -3 0 -5 -5 -3
-12 1 -7 -15 -15 -38 -19 -81 -15 -95 -21 -95 -40 0 -12 -5 -16 -15 -13 -8 4
-15 12 -15 20 0 8 -9 14 -21 14 -15 0 -19 5 -15 18 12 39 18 72 14 72 -3 0
-26 -75 -51 -167z m60 11 c-3 -3 -12 -4 -19 -1 -8 3 -5 6 6 6 11 1 17 -2 13
-5z m63 -56 c0 -5 -4 -8 -10 -8 -5 0 -10 10 -10 23 0 18 2 19 10 7 5 -8 10
-18 10 -22z m-30 12 c0 -5 -7 -7 -15 -4 -8 4 -15 8 -15 10 0 2 7 4 15 4 8 0
15 -4 15 -10z"/>
<path d="M4597 717 c-3 -7 -2 -19 3 -26 5 -10 8 -9 13 2 3 7 2 19 -3 26 -5 10
-8 9 -13 -2z"/>
<path d="M1605 625 c-43 -53 -76 -97 -74 -99 2 -2 32 -12 66 -24 l62 -20 6 31
c13 79 26 199 22 203 -2 3 -39 -39 -82 -91z"/>
<path d="M3253 653 c31 -2 83 -2 115 0 31 2 5 3 -58 3 -63 0 -89 -1 -57 -3z"/>
<path d="M5270 649 c0 -5 5 -7 10 -4 6 3 10 8 10 11 0 2 -4 4 -10 4 -5 0 -10
-5 -10 -11z"/>
<path d="M4645 630 c-3 -5 -3 -14 0 -20 3 -5 1 -10 -5 -10 -6 0 -15 -12 -21
-27 -10 -27 -11 -27 -25 -9 -25 35 -15 -3 16 -57 36 -64 37 -71 8 -85 -25 -12
-24 -12 90 -16 l42 -2 -6 35 c-15 83 -84 216 -99 191z"/>
<path d="M5300 619 c0 -5 5 -7 10 -4 6 3 10 8 10 11 0 2 -4 4 -10 4 -5 0 -10
-5 -10 -11z"/>
<path d="M5270 590 c0 -5 5 -10 10 -10 6 0 10 5 10 10 0 6 -4 10 -10 10 -5 0
-10 -4 -10 -10z"/>
<path d="M5300 560 c0 -5 5 -10 10 -10 6 0 10 5 10 10 0 6 -4 10 -10 10 -5 0
-10 -4 -10 -10z"/>
<path d="M3103 533 c15 -2 39 -2 55 0 15 2 2 4 -28 4 -30 0 -43 -2 -27 -4z"/>
<path d="M3243 533 c26 -2 68 -2 95 0 26 2 4 3 -48 3 -52 0 -74 -1 -47 -3z"/>
<path d="M5025 530 c3 -5 8 -10 11 -10 2 0 4 5 4 10 0 6 -5 10 -11 10 -5 0 -7
-4 -4 -10z"/>
<path d="M5270 530 c0 -5 5 -10 10 -10 6 0 10 5 10 10 0 6 -4 10 -10 10 -5 0
-10 -4 -10 -10z"/>
<path d="M5308 533 c7 -3 16 -2 19 1 4 3 -2 6 -13 5 -11 0 -14 -3 -6 -6z"/>
<path d="M375 510 c3 -5 8 -10 11 -10 2 0 4 5 4 10 0 6 -5 10 -11 10 -5 0 -7
-4 -4 -10z"/>
<path d="M4485 511 c-6 -5 -19 -11 -30 -14 -19 -4 -19 -5 1 -6 12 0 27 6 34
14 14 16 10 20 -5 6z"/>
<path d="M5300 500 c0 -5 5 -10 10 -10 6 0 10 5 10 10 0 6 -4 10 -10 10 -5 0
-10 -4 -10 -10z"/>
<path d="M340 480 c0 -5 5 -10 10 -10 6 0 10 5 10 10 0 6 -4 10 -10 10 -5 0
-10 -4 -10 -10z"/>
<path d="M5270 470 c0 -5 5 -10 10 -10 6 0 10 5 10 10 0 6 -4 10 -10 10 -5 0
-10 -4 -10 -10z"/>
<path d="M310 450 c0 -5 5 -10 11 -10 5 0 7 5 4 10 -3 6 -8 10 -11 10 -2 0 -4
-4 -4 -10z"/>
<path d="M740 450 c0 -5 5 -10 11 -10 5 0 7 5 4 10 -3 6 -8 10 -11 10 -2 0 -4
-4 -4 -10z"/>
<path d="M5300 440 c0 -5 5 -10 10 -10 6 0 10 5 10 10 0 6 -4 10 -10 10 -5 0
-10 -4 -10 -10z"/>
<path d="M400 420 c0 -5 5 -10 11 -10 5 0 7 5 4 10 -3 6 -8 10 -11 10 -2 0 -4
-4 -4 -10z"/>
<path d="M770 420 c0 -5 5 -10 11 -10 5 0 7 5 4 10 -3 6 -8 10 -11 10 -2 0 -4
-4 -4 -10z"/>
<path d="M3118 413 c17 -2 47 -2 65 0 17 2 3 4 -33 4 -36 0 -50 -2 -32 -4z"/>
<path d="M3243 413 c15 -2 39 -2 55 0 15 2 2 4 -28 4 -30 0 -43 -2 -27 -4z"/>
<path d="M3428 413 c28 -2 76 -2 105 0 28 2 5 3 -53 3 -58 0 -81 -1 -52 -3z"/>
<path d="M5270 410 c0 -5 5 -10 10 -10 6 0 10 5 10 10 0 6 -4 10 -10 10 -5 0
-10 -4 -10 -10z"/>
</g>
</svg>
