<?xml version="1.0" standalone="no"?>
<!DOCTYPE svg PUBLIC "-//W3C//DTD SVG 20010904//EN"
 "http://www.w3.org/TR/2001/REC-SVG-20010904/DTD/svg10.dtd">
<svg version="1.0" xmlns="http://www.w3.org/2000/svg"
 width="238.000000pt" height="212.000000pt" viewBox="0 0 238.000000 212.000000"
 preserveAspectRatio="xMidYMid meet">

<g transform="translate(0.000000,212.000000) scale(0.100000,-0.100000)"
fill="#000000" stroke="none">
<path d="M855 2114 c-175 -27 -296 -71 -421 -153 -154 -101 -294 -269 -359
-430 -95 -233 -93 -510 4 -742 70 -167 228 -346 390 -443 98 -59 244 -109 365
-126 230 -32 499 38 687 180 35 26 68 46 73 43 5 -3 131 -101 281 -218 199
-155 282 -214 308 -219 146 -27 252 155 154 263 -12 13 -140 115 -284 228
-145 113 -263 207 -263 209 0 3 11 26 24 52 59 119 89 258 88 412 -1 169 -34
303 -112 447 -161 299 -460 485 -800 498 -58 2 -118 1 -135 -1z m250 -339 c33
-8 94 -32 135 -52 93 -45 210 -157 263 -254 101 -182 101 -426 0 -608 -57
-103 -169 -209 -273 -259 -47 -22 -109 -45 -138 -51 -77 -16 -225 -13 -295 5
-215 55 -396 236 -451 451 -21 79 -21 237 0 317 53 206 249 401 450 450 80 19
235 20 309 1z"/>
</g>
</svg>
