<?xml version="1.0" standalone="no"?>
<!DOCTYPE svg PUBLIC "-//W3C//DTD SVG 20010904//EN"
 "http://www.w3.org/TR/2001/REC-SVG-20010904/DTD/svg10.dtd">
<svg version="1.0" xmlns="http://www.w3.org/2000/svg"
 width="564.000000pt" height="564.000000pt" viewBox="0 0 564.000000 564.000000"
 preserveAspectRatio="xMidYMid meet">

<g transform="translate(0.000000,564.000000) scale(0.100000,-0.100000)"
fill="#000000" stroke="none">
<path d="M3205 4914 c-180 -26 -348 -79 -507 -161 -148 -75 -264 -160 -383
-278 -206 -206 -343 -454 -412 -745 -35 -147 -43 -421 -18 -571 20 -120 53
-239 97 -351 l31 -80 -649 -649 -649 -649 358 -357 357 -358 650 650 650 650
32 -14 c98 -40 228 -82 319 -103 91 -20 131 -23 314 -23 234 0 300 10 483 71
222 73 429 202 597 369 290 290 445 667 445 1080 0 507 -233 954 -655 1257
-72 52 -250 144 -346 179 -171 63 -275 80 -489 84 -107 2 -208 1 -225 -1z
m448 -285 c437 -89 801 -415 941 -844 82 -250 82 -532 0 -782 -209 -642 -890
-1005 -1541 -822 -452 127 -789 487 -893 954 -32 142 -33 368 -2 512 116 541
545 934 1092 1002 105 13 285 5 403 -20z m-1265 -2576 l-93 -93 -167 167 -168
168 92 92 93 93 167 -167 168 -168 -92 -92z m-448 -118 l165 -165 -255 -257
c-140 -142 -292 -294 -338 -338 l-83 -79 -167 167 -167 167 335 335 c184 184
337 335 340 335 3 0 79 -74 170 -165z"/>
<path d="M3229 4451 c-345 -64 -634 -273 -782 -566 -82 -163 -117 -310 -117
-490 0 -496 314 -900 808 -1038 66 -18 103 -21 262 -21 172 0 191 2 275 27
115 35 273 111 350 170 278 210 435 520 435 861 0 492 -326 910 -810 1038 -84
22 -340 33 -421 19z m326 -273 c112 -18 257 -89 360 -175 103 -85 212 -254
249 -383 72 -256 14 -535 -154 -737 -105 -127 -246 -217 -415 -264 -110 -31
-285 -31 -400 0 -284 77 -502 295 -576 576 -30 113 -30 290 0 400 60 223 217
416 417 514 172 84 317 103 519 69z"/>
<path d="M3232 4020 c-224 -59 -398 -233 -461 -460 -12 -41 -21 -96 -21 -122
l0 -48 130 0 129 0 6 38 c17 108 54 181 128 249 54 49 118 80 187 90 l55 8 3
133 3 132 -43 -1 c-24 0 -76 -9 -116 -19z"/>
</g>
</svg>
