<?xml version="1.0" standalone="no"?>
<!DOCTYPE svg PUBLIC "-//W3C//DTD SVG 20010904//EN"
 "http://www.w3.org/TR/2001/REC-SVG-20010904/DTD/svg10.dtd">
<svg version="1.0" xmlns="http://www.w3.org/2000/svg"
 width="563.000000pt" height="375.000000pt" viewBox="0 0 563.000000 375.000000"
 preserveAspectRatio="xMidYMid meet">

<g transform="translate(0.000000,375.000000) scale(0.100000,-0.100000)"
fill="#000000" stroke="none">
<path d="M1516 2774 c-22 -22 -20 -50 6 -68 18 -13 54 -16 184 -16 l161 0 58
-147 c31 -82 106 -272 166 -423 59 -151 146 -372 193 -490 l85 -215 597 -3
c432 -1 601 1 610 9 18 15 18 53 1 68 -10 8 -181 12 -577 13 l-564 3 -23 60
c-13 32 -23 64 -23 70 0 7 192 9 603 7 485 -2 606 0 614 10 10 12 433 877 433
884 0 2 -453 5 -1006 6 l-1007 3 -46 120 -47 120 -201 3 c-173 2 -203 0 -217
-14z m2364 -335 c0 -6 -39 -91 -86 -188 -47 -97 -122 -251 -166 -343 l-81
-168 -602 0 -601 0 -133 338 c-73 185 -135 345 -138 355 -5 16 43 17 901 17
660 0 906 -3 906 -11z"/>
<path d="M1260 2380 l0 -50 203 2 202 3 3 48 3 47 -205 0 -206 0 0 -50z"/>
<path d="M1480 2090 l0 -50 206 0 205 0 -3 48 -3 47 -202 3 -203 2 0 -50z"/>
<path d="M1378 1790 l4 -50 199 0 199 0 0 50 0 50 -202 0 -203 0 3 -50z"/>
<path d="M1720 1500 l0 -50 205 0 205 0 0 50 0 50 -205 0 -205 0 0 -50z"/>
<path d="M2518 1310 c-46 -25 -83 -73 -97 -126 -35 -130 84 -259 218 -238 169
27 221 252 80 350 -55 38 -146 44 -201 14z m128 -85 c40 -16 68 -70 58 -110
-8 -32 -59 -75 -89 -75 -58 0 -105 47 -105 104 0 30 43 83 73 89 12 2 23 5 25
6 1 0 18 -6 38 -14z"/>
<path d="M3291 1320 c-77 -33 -121 -98 -121 -179 0 -61 13 -97 48 -134 76 -80
204 -82 279 -5 40 41 53 76 53 139 0 105 -73 180 -178 186 -32 1 -68 -2 -81
-7z m129 -108 c53 -40 47 -127 -11 -157 -41 -22 -73 -18 -107 10 -55 47 -51
118 10 155 37 22 70 20 108 -8z"/>
</g>
</svg>
